# Blender v2.72 (sub 0) OBJ File: ''
# www.blender.org
o Mesh_.001
v -2.298360 0.820867 -0.745021
v -2.335750 0.454091 -0.745021
v -7.376440 0.951190 -0.745021
v -7.327550 1.453860 -0.745021
v -7.392730 0.436817 -0.745021
v -2.225460 1.150500 -0.745021
v -7.246070 1.944830 -0.745021
v -7.132010 2.424090 -0.745021
v -2.117080 1.442970 -0.745021
v -6.985340 2.891690 -0.745021
v -6.806090 3.347550 -0.745020
v -6.594250 3.791720 -0.745020
v -6.349850 4.224220 -0.745020
v -1.973200 1.698300 -0.745021
v -6.080670 4.637850 -0.745020
v -5.794670 5.025410 -0.745020
v -1.799760 1.924580 -0.745021
v -1.602670 2.130040 -0.745021
v -5.491820 5.386920 -0.745020
v -5.172090 5.722390 -0.745020
v -1.381920 2.314610 -0.745021
v -4.835520 6.031810 -0.745020
v -4.482070 6.315160 -0.745020
v -4.111780 6.572490 -0.745020
v -3.724640 6.803750 -0.745020
v -1.137540 2.478360 -0.745021
v 0.823472 1.666810 -0.745021
v 1.040400 1.493690 -0.745021
v 0.579610 1.792150 -0.745021
v 1.219570 1.285560 -0.745021
v 1.432440 0.802484 -0.745021
v 1.350250 1.055160 -0.745021
v 0.308778 1.869730 -0.745021
v 1.466100 0.527550 -0.745021
v 1.270080 -0.254349 -0.745021
v 1.450610 0.249970 -0.745021
v 1.385270 -0.010677 -0.745021
v 1.105060 -0.481066 -0.745021
v 0.903698 -0.674436 -0.745021
v 0.679557 -0.818105 -0.745021
v 0.432597 -0.912053 -0.745021
v 0.162833 -0.956286 -0.745021
v -0.112888 -0.952226 -0.745021
v -0.377670 -0.901320 -0.745021
v 0.010987 1.899520 -0.745021
v -0.874507 -0.658928 -0.745021
v -1.086580 -0.472363 -0.745021
v -1.247750 -0.248785 -0.745021
v -1.358050 0.011805 -0.745021
v -0.631549 -0.803555 -0.745021
v -1.417490 0.309408 -0.745021
v -1.420650 0.615579 -0.745021
v -1.242110 1.168210 -0.745021
v -1.362210 0.901848 -0.745021
v -1.060400 1.414680 -0.745021
v -0.298344 1.864790 -0.745021
v -0.834036 1.622360 -0.745021
v -0.580025 1.772400 -0.745021
v 7.392730 0.953596 -0.745021
v 7.392680 0.499563 -0.745021
v 2.346800 0.493548 -0.745021
v 7.359090 1.405750 -0.745021
v 2.320130 0.808554 -0.745021
v 7.291760 1.856060 -0.745021
v 6.887520 3.195750 -0.745020
v 7.055970 2.751070 -0.745021
v 2.257400 1.107290 -0.745021
v 2.158620 1.389700 -0.745021
v 7.190720 2.304500 -0.745021
v 6.685370 3.638600 -0.745020
v 6.449530 4.079580 -0.745020
v 2.023770 1.655810 -0.745021
v 6.184520 4.508060 -0.745020
v 5.894840 4.913550 -0.745020
v 1.854550 1.900310 -0.745021
v 5.580560 5.295940 -0.745020
v 4.878080 5.991620 -0.745020
v 5.241670 5.655300 -0.745020
v 1.652650 2.117880 -0.745021
v 4.077090 6.595050 -0.745020
v 4.489890 6.304850 -0.745020
v 1.418050 2.308500 -0.745021
v 1.150770 2.472190 -0.745021
v 3.639650 6.862250 -0.745020
v 3.343240 -6.082190 -0.745022
v 0.905841 -1.663200 -0.745021
v 1.202220 -1.507300 -0.745021
v 3.781280 -5.832840 -0.745022
v 2.896550 -6.297070 -0.745022
v 2.441180 -6.477480 -0.745022
v 0.607094 -1.773790 -0.745021
v 1.977170 -6.623390 -0.745022
v 1.504520 -6.734840 -0.745022
v 0.305958 -1.839020 -0.745021
v 1.023230 -6.811760 -0.745022
v 0.002434 -1.858900 -0.745021
v 0.533276 -6.854240 -0.745022
v 0.034691 -6.862250 -0.745022
v -0.297347 -1.835070 -0.745021
v -0.463219 -6.839400 -0.745022
v -0.951107 -6.789330 -0.745022
v -0.587264 -1.769110 -0.745021
v -1.428970 -6.712080 -0.745022
v -1.896830 -6.607620 -0.745022
v -0.867326 -1.661020 -0.745021
v -2.354660 -6.475960 -0.745022
v -2.802500 -6.317120 -0.745022
v -1.137540 -1.510810 -0.745021
v -3.240270 -6.131050 -0.745022
v -3.668070 -5.917770 -0.745022
v -7.376440 0.951190 0.745021
v -2.335750 0.454091 0.745021
v -2.298360 0.820867 0.745021
v -7.327550 1.453860 0.745021
v -7.392730 0.436817 0.745021
v -7.246070 1.944830 0.745021
v -2.225460 1.150500 0.745021
v -7.132010 2.424090 0.745021
v -6.985340 2.891690 0.745021
v -2.117080 1.442970 0.745021
v -6.806090 3.347550 0.745022
v -6.594250 3.791720 0.745022
v -1.973200 1.698300 0.745021
v -6.349850 4.224220 0.745022
v -6.080670 4.637850 0.745022
v -1.799760 1.924580 0.745021
v -5.794670 5.025410 0.745022
v -5.491820 5.386920 0.745022
v -1.602670 2.130040 0.745021
v -5.172090 5.722390 0.745022
v -4.835520 6.031810 0.745022
v -1.381920 2.314610 0.745021
v -4.482070 6.315160 0.745022
v -1.137540 2.478360 0.745021
v -3.724640 6.803750 0.745022
v -4.111780 6.572490 0.745022
v 0.579610 1.792150 0.745021
v 1.040400 1.493690 0.745021
v 0.823472 1.666810 0.745021
v 1.432440 0.802484 0.745021
v 1.219570 1.285560 0.745021
v 1.350250 1.055160 0.745021
v 1.466100 0.527550 0.745021
v 0.308778 1.869730 0.745021
v 1.270080 -0.254349 0.745021
v 1.450610 0.249970 0.745021
v 1.385270 -0.010677 0.745021
v 1.105060 -0.481066 0.745021
v 0.432597 -0.912053 0.745021
v 0.679557 -0.818105 0.745021
v 0.903698 -0.674436 0.745021
v 0.162833 -0.956286 0.745021
v -0.112888 -0.952226 0.745021
v 0.010987 1.899520 0.745021
v -0.377670 -0.901320 0.745021
v -1.247750 -0.248785 0.745021
v -1.086580 -0.472363 0.745021
v -0.874507 -0.658928 0.745021
v -1.358050 0.011805 0.745021
v -1.417490 0.309408 0.745021
v -0.631549 -0.803555 0.745021
v -1.242110 1.168210 0.745021
v -1.420650 0.615579 0.745021
v -1.362210 0.901848 0.745021
v -1.060400 1.414680 0.745021
v -0.298344 1.864790 0.745021
v -0.834036 1.622360 0.745021
v -0.580025 1.772400 0.745021
v 2.346800 0.493548 0.745021
v 7.392680 0.499563 0.745021
v 7.392730 0.953596 0.745021
v 7.291760 1.856060 0.745021
v 2.320130 0.808554 0.745021
v 7.359090 1.405750 0.745021
v 2.257400 1.107290 0.745021
v 7.055970 2.751070 0.745021
v 6.887520 3.195750 0.745022
v 2.158620 1.389700 0.745021
v 7.190720 2.304500 0.745021
v 6.685370 3.638600 0.745022
v 6.184520 4.508060 0.745022
v 2.023770 1.655810 0.745021
v 6.449530 4.079580 0.745022
v 5.580560 5.295940 0.745022
v 1.854550 1.900310 0.745021
v 5.894840 4.913550 0.745022
v 1.652650 2.117880 0.745021
v 5.241670 5.655300 0.745022
v 4.878080 5.991620 0.745022
v 1.418050 2.308500 0.745021
v 4.489890 6.304850 0.745022
v 4.077090 6.595050 0.745022
v 3.639650 6.862250 0.745022
v 1.150770 2.472190 0.745021
v 1.202220 -1.507300 0.745021
v 0.905841 -1.663200 0.745021
v 3.343240 -6.082190 0.745020
v 3.781280 -5.832840 0.745020
v 2.896550 -6.297070 0.745020
v 0.607094 -1.773790 0.745021
v 2.441180 -6.477480 0.745020
v 1.977170 -6.623390 0.745020
v 0.305958 -1.839020 0.745021
v 1.504520 -6.734840 0.745020
v 1.023230 -6.811760 0.745020
v 0.533276 -6.854240 0.745020
v 0.002434 -1.858900 0.745021
v 0.034691 -6.862250 0.745020
v -0.463219 -6.839400 0.745020
v -0.297347 -1.835070 0.745021
v -0.951107 -6.789330 0.745020
v -1.428970 -6.712080 0.745020
v -0.587264 -1.769110 0.745021
v -1.896830 -6.607620 0.745020
v -2.354660 -6.475960 0.745020
v -0.867326 -1.661020 0.745021
v -2.802500 -6.317120 0.745020
v -3.240270 -6.131050 0.745020
v -1.137540 -1.510810 0.745021
v -3.668070 -5.917770 0.745020
vt 0.000000 0.000000
vn -0.000000 0.000000 -1.000000
vn -0.000000 -0.000000 1.000000
vn 0.858200 0.513300 0.000000
vn 0.556700 -0.830700 -0.000000
vn 0.641400 -0.767200 -0.000000
vn 0.721700 -0.692300 -0.000000
vn 0.793700 -0.608300 -0.000000
vn 0.871200 -0.490900 0.000000
vn 0.937700 -0.347500 -0.000000
vn 0.976400 -0.215900 -0.000000
vn 0.994800 -0.101400 -0.000000
vn 0.003400 -1.000000 -0.000000
vn -0.999500 0.031700 0.000000
vn -0.995300 0.096800 0.000000
vn -0.986500 0.163700 0.000000
vn -0.972800 0.231500 0.000000
vn -0.954200 0.299300 0.000000
vn -0.930600 0.365900 0.000000
vn -0.902600 0.430500 0.000000
vn -0.870600 0.492000 0.000000
vn -0.838100 0.545400 0.000000
vn -0.804600 0.593800 0.000000
vn -0.766600 0.642200 0.000000
vn -0.723900 0.689900 0.000000
vn -0.676800 0.736200 0.000000
vn -0.625500 0.780200 0.000000
vn -0.570700 0.821200 0.000000
vn -0.512800 0.858500 0.000000
vn 0.099500 0.995000 0.000000
vn 0.275400 0.961300 0.000000
vn 0.457100 0.889400 0.000000
vn 0.623800 0.781600 0.000000
vn 0.757900 0.652400 0.000000
vn 0.869800 0.493400 0.000000
vn 0.951000 0.309300 0.000000
vn 0.992600 0.121500 0.000000
vn 0.998400 -0.055700 -0.000000
vn 0.970000 -0.243200 -0.000000
vn 0.904100 -0.427400 -0.000000
vn 0.808500 -0.588500 -0.000000
vn 0.692600 -0.721300 -0.000000
vn 0.539600 -0.841900 -0.000000
vn 0.355600 -0.934700 -0.000000
vn 0.161800 -0.986800 -0.000000
vn -0.014700 -0.999900 -0.000000
vn -0.188800 -0.982000 -0.000000
vn -0.359400 -0.933200 -0.000000
vn -0.511500 -0.859300 -0.000000
vn -0.660500 -0.750800 -0.000000
vn -0.811200 -0.584800 -0.000000
vn -0.920900 -0.389800 -0.000000
vn -0.980600 -0.195900 -0.000000
vn -0.999900 -0.010300 -0.000000
vn -0.979800 0.200000 0.000000
vn -0.911600 0.411000 0.000000
vn -0.804900 0.593400 0.000000
vn -0.676000 0.736900 0.000000
vn -0.508600 0.861000 0.000000
vn -0.311700 0.950200 0.000000
vn -0.111600 0.993800 0.000000
vn 0.521300 0.853400 0.000000
vn 0.575100 0.818100 0.000000
vn 0.628000 0.778200 0.000000
vn 0.679000 0.734100 0.000000
vn 0.727500 0.686100 0.000000
vn 0.772600 0.634900 0.000000
vn 0.813700 0.581300 0.000000
vn 0.850500 0.526000 0.000000
vn 0.881800 0.471600 0.000000
vn 0.909700 0.415300 0.000000
vn 0.935200 0.354200 0.000000
vn 0.957400 0.288900 0.000000
vn 0.975500 0.219800 0.000000
vn 0.989000 0.147900 0.000000
vn 0.997200 0.074200 0.000000
vn 1.000000 -0.000100 -0.000000
vn 0.001200 -1.000000 -0.000000
vn -0.996400 -0.084400 -0.000000
vn -0.978700 -0.205500 -0.000000
vn -0.943900 -0.330200 0.000000
vn -0.892000 -0.452000 -0.000000
vn -0.822300 -0.569100 -0.000000
vn -0.733000 -0.680200 -0.000000
vn -0.630600 -0.776100 -0.000000
vn -0.522300 -0.852800 0.000000
vn -0.869900 0.493200 0.000000
vn 0.485900 0.874000 0.000000
vn 0.360100 0.932900 0.000000
vn 0.221800 0.975100 0.000000
vn 0.079200 0.996900 0.000000
vn -0.065400 0.997900 0.000000
vn -0.211700 0.977300 0.000000
vn -0.347200 0.937800 0.000000
vn -0.465500 0.885000 0.000000
vn 0.858900 0.512100 0.000000
vn 0.494700 -0.869100 0.000000
vn 0.433500 -0.901200 0.000000
vn 0.368300 -0.929700 0.000000
vn 0.300000 -0.953900 0.000000
vn 0.229500 -0.973300 0.000000
vn 0.157800 -0.987500 0.000000
vn 0.086400 -0.996300 0.000000
vn 0.016100 -0.999900 0.000000
vn -0.045800 -0.998900 0.000000
vn -0.102100 -0.994800 0.000000
vn -0.159600 -0.987200 0.000000
vn -0.217900 -0.976000 0.000000
vn -0.276400 -0.961100 0.000000
vn -0.334300 -0.942500 0.000000
vn -0.391200 -0.920300 0.000000
vn -0.446200 -0.894900 0.000000
vn -0.867200 0.498000 0.000000
s off
f 2/1/1 3/1/1 4/1/1
f 2/1/1 5/1/1 3/1/1
f 1/1/1 7/1/1 8/1/1
f 1/1/1 4/1/1 7/1/1
f 6/1/1 10/1/1 11/1/1
f 6/1/1 8/1/1 10/1/1
f 9/1/1 11/1/1 12/1/1
f 14/1/1 9/1/1 12/1/1
f 14/1/1 13/1/1 15/1/1
f 17/1/1 14/1/1 15/1/1
f 17/1/1 19/1/1 20/1/1
f 17/1/1 16/1/1 19/1/1
f 18/1/1 22/1/1 23/1/1
f 18/1/1 20/1/1 22/1/1
f 25/1/1 26/1/1 21/1/1
f 21/1/1 23/1/1 24/1/1
f 27/1/1 28/1/1 29/1/1
f 28/1/1 30/1/1 31/1/1
f 30/1/1 32/1/1 31/1/1
f 33/1/1 29/1/1 34/1/1
f 29/1/1 28/1/1 34/1/1
f 28/1/1 31/1/1 34/1/1
f 33/1/1 34/1/1 35/1/1
f 34/1/1 36/1/1 35/1/1
f 36/1/1 37/1/1 35/1/1
f 33/1/1 35/1/1 38/1/1
f 39/1/1 40/1/1 41/1/1
f 38/1/1 39/1/1 42/1/1
f 39/1/1 41/1/1 42/1/1
f 33/1/1 38/1/1 43/1/1
f 38/1/1 42/1/1 43/1/1
f 45/1/1 33/1/1 43/1/1
f 46/1/1 47/1/1 48/1/1
f 46/1/1 48/1/1 49/1/1
f 50/1/1 46/1/1 51/1/1
f 46/1/1 49/1/1 51/1/1
f 51/1/1 52/1/1 53/1/1
f 52/1/1 54/1/1 53/1/1
f 44/1/1 50/1/1 55/1/1
f 50/1/1 51/1/1 55/1/1
f 51/1/1 53/1/1 55/1/1
f 44/1/1 56/1/1 45/1/1
f 44/1/1 55/1/1 56/1/1
f 55/1/1 57/1/1 56/1/1
f 57/1/1 58/1/1 56/1/1
f 59/1/1 60/1/1 61/1/1
f 62/1/1 63/1/1 64/1/1
f 62/1/1 59/1/1 61/1/1
f 66/1/1 67/1/1 68/1/1
f 69/1/1 67/1/1 66/1/1
f 69/1/1 64/1/1 63/1/1
f 65/1/1 68/1/1 70/1/1
f 71/1/1 72/1/1 73/1/1
f 71/1/1 70/1/1 68/1/1
f 74/1/1 75/1/1 76/1/1
f 74/1/1 73/1/1 72/1/1
f 77/1/1 78/1/1 79/1/1
f 78/1/1 76/1/1 75/1/1
f 80/1/1 81/1/1 82/1/1
f 81/1/1 77/1/1 79/1/1
f 84/1/1 80/1/1 82/1/1
f 86/1/1 87/1/1 88/1/1
f 86/1/1 85/1/1 89/1/1
f 91/1/1 86/1/1 89/1/1
f 91/1/1 90/1/1 92/1/1
f 94/1/1 91/1/1 92/1/1
f 94/1/1 93/1/1 95/1/1
f 94/1/1 97/1/1 98/1/1
f 94/1/1 95/1/1 97/1/1
f 96/1/1 100/1/1 101/1/1
f 98/1/1 100/1/1 96/1/1
f 99/1/1 103/1/1 104/1/1
f 101/1/1 103/1/1 99/1/1
f 105/1/1 102/1/1 106/1/1
f 104/1/1 106/1/1 102/1/1
f 106/1/1 107/1/1 105/1/1
f 108/1/1 105/1/1 109/1/1
f 107/1/1 109/1/1 105/1/1
f 109/1/1 110/1/1 108/1/1
f 112/1/2 113/1/2 114/1/2
f 111/1/2 115/1/2 112/1/2
f 113/1/2 117/1/2 118/1/2
f 116/1/2 114/1/2 113/1/2
f 117/1/2 120/1/2 121/1/2
f 119/1/2 118/1/2 117/1/2
f 122/1/2 121/1/2 120/1/2
f 123/1/2 124/1/2 122/1/2
f 125/1/2 124/1/2 123/1/2
f 126/1/2 127/1/2 125/1/2
f 126/1/2 129/1/2 130/1/2
f 128/1/2 127/1/2 126/1/2
f 129/1/2 132/1/2 133/1/2
f 131/1/2 130/1/2 129/1/2
f 135/1/2 136/1/2 132/1/2
f 136/1/2 133/1/2 132/1/2
f 137/1/2 138/1/2 139/1/2
f 140/1/2 141/1/2 138/1/2
f 140/1/2 142/1/2 141/1/2
f 143/1/2 137/1/2 144/1/2
f 143/1/2 138/1/2 137/1/2
f 143/1/2 140/1/2 138/1/2
f 145/1/2 143/1/2 144/1/2
f 145/1/2 146/1/2 143/1/2
f 145/1/2 147/1/2 146/1/2
f 148/1/2 145/1/2 144/1/2
f 149/1/2 150/1/2 151/1/2
f 152/1/2 151/1/2 148/1/2
f 152/1/2 149/1/2 151/1/2
f 153/1/2 148/1/2 144/1/2
f 153/1/2 152/1/2 148/1/2
f 154/1/2 155/1/2 153/1/2
f 156/1/2 157/1/2 158/1/2
f 159/1/2 156/1/2 158/1/2
f 160/1/2 158/1/2 161/1/2
f 160/1/2 159/1/2 158/1/2
f 162/1/2 163/1/2 160/1/2
f 162/1/2 164/1/2 163/1/2
f 165/1/2 161/1/2 155/1/2
f 165/1/2 160/1/2 161/1/2
f 165/1/2 162/1/2 160/1/2
f 154/1/2 166/1/2 155/1/2
f 166/1/2 165/1/2 155/1/2
f 166/1/2 167/1/2 165/1/2
f 166/1/2 168/1/2 167/1/2
f 169/1/2 170/1/2 171/1/2
f 172/1/2 173/1/2 174/1/2
f 174/1/2 173/1/2 169/1/2
f 176/1/2 177/1/2 178/1/2
f 176/1/2 175/1/2 179/1/2
f 179/1/2 175/1/2 173/1/2
f 180/1/2 178/1/2 177/1/2
f 181/1/2 182/1/2 183/1/2
f 183/1/2 182/1/2 178/1/2
f 184/1/2 185/1/2 186/1/2
f 186/1/2 185/1/2 182/1/2
f 187/1/2 188/1/2 189/1/2
f 188/1/2 187/1/2 185/1/2
f 190/1/2 191/1/2 192/1/2
f 191/1/2 190/1/2 187/1/2
f 193/1/2 194/1/2 190/1/2
f 196/1/2 197/1/2 198/1/2
f 199/1/2 197/1/2 196/1/2
f 200/1/2 201/1/2 199/1/2
f 202/1/2 201/1/2 200/1/2
f 203/1/2 204/1/2 202/1/2
f 205/1/2 204/1/2 203/1/2
f 203/1/2 207/1/2 208/1/2
f 206/1/2 205/1/2 203/1/2
f 207/1/2 210/1/2 211/1/2
f 207/1/2 209/1/2 208/1/2
f 210/1/2 213/1/2 214/1/2
f 210/1/2 212/1/2 211/1/2
f 215/1/2 213/1/2 216/1/2
f 213/1/2 215/1/2 214/1/2
f 216/1/2 217/1/2 215/1/2
f 218/1/2 216/1/2 219/1/2
f 216/1/2 218/1/2 217/1/2
f 219/1/2 220/1/2 218/1/2
f 134/1/3 26/1/3 25/1/3
f 132/1/4 21/1/4 26/1/4
f 129/1/5 18/1/5 21/1/5
f 126/1/6 17/1/6 18/1/6
f 123/1/7 14/1/7 17/1/7
f 120/1/8 9/1/8 14/1/8
f 117/1/9 6/1/9 9/1/9
f 6/1/10 117/1/10 113/1/10
f 1/1/11 113/1/11 112/1/11
f 115/1/12 5/1/12 2/1/12
f 111/1/13 3/1/13 5/1/13
f 114/1/14 4/1/14 3/1/14
f 116/1/15 7/1/15 4/1/15
f 118/1/16 8/1/16 7/1/16
f 118/1/17 119/1/17 10/1/17
f 119/1/18 121/1/18 11/1/18
f 121/1/19 122/1/19 12/1/19
f 124/1/20 13/1/20 12/1/20
f 125/1/21 15/1/21 13/1/21
f 127/1/22 16/1/22 15/1/22
f 128/1/23 19/1/23 16/1/23
f 128/1/24 130/1/24 20/1/24
f 131/1/25 22/1/25 20/1/25
f 133/1/26 23/1/26 22/1/26
f 136/1/27 24/1/27 23/1/27
f 135/1/28 25/1/28 24/1/28
f 144/1/29 33/1/29 45/1/29
f 137/1/30 29/1/30 33/1/30
f 139/1/31 27/1/31 29/1/31
f 138/1/32 28/1/32 27/1/32
f 141/1/33 30/1/33 28/1/33
f 142/1/34 32/1/34 30/1/34
f 142/1/35 140/1/35 31/1/35
f 140/1/36 143/1/36 34/1/36
f 146/1/37 36/1/37 34/1/37
f 147/1/38 37/1/38 36/1/38
f 145/1/39 35/1/39 37/1/39
f 148/1/40 38/1/40 35/1/40
f 151/1/41 39/1/41 38/1/41
f 150/1/42 40/1/42 39/1/42
f 149/1/43 41/1/43 40/1/43
f 152/1/44 42/1/44 41/1/44
f 153/1/45 43/1/45 42/1/45
f 155/1/46 44/1/46 43/1/46
f 161/1/47 50/1/47 44/1/47
f 158/1/48 46/1/48 50/1/48
f 157/1/49 47/1/49 46/1/49
f 157/1/50 156/1/50 48/1/50
f 159/1/51 49/1/51 48/1/51
f 159/1/52 160/1/52 51/1/52
f 163/1/53 52/1/53 51/1/53
f 164/1/54 54/1/54 52/1/54
f 162/1/55 53/1/55 54/1/55
f 162/1/56 165/1/56 55/1/56
f 167/1/57 57/1/57 55/1/57
f 168/1/58 58/1/58 57/1/58
f 166/1/59 56/1/59 58/1/59
f 154/1/60 45/1/60 56/1/60
f 193/1/61 192/1/61 80/1/61
f 192/1/62 191/1/62 81/1/62
f 191/1/63 189/1/63 77/1/63
f 188/1/64 78/1/64 77/1/64
f 184/1/65 76/1/65 78/1/65
f 184/1/66 186/1/66 74/1/66
f 186/1/67 181/1/67 73/1/67
f 183/1/68 71/1/68 73/1/68
f 180/1/69 70/1/69 71/1/69
f 177/1/70 65/1/70 70/1/70
f 176/1/71 66/1/71 65/1/71
f 179/1/72 69/1/72 66/1/72
f 172/1/73 64/1/73 69/1/73
f 174/1/74 62/1/74 64/1/74
f 171/1/75 59/1/75 62/1/75
f 170/1/76 60/1/76 59/1/76
f 169/1/77 61/1/77 60/1/77
f 173/1/78 63/1/78 61/1/78
f 175/1/79 67/1/79 63/1/79
f 178/1/80 68/1/80 67/1/80
f 182/1/81 72/1/81 68/1/81
f 185/1/82 75/1/82 72/1/82
f 187/1/83 79/1/83 75/1/83
f 190/1/84 82/1/84 79/1/84
f 194/1/85 83/1/85 82/1/85
f 193/1/86 84/1/86 83/1/86
f 216/1/87 105/1/87 108/1/87
f 213/1/88 102/1/88 105/1/88
f 210/1/89 99/1/89 102/1/89
f 210/1/90 207/1/90 96/1/90
f 203/1/91 94/1/91 96/1/91
f 200/1/92 91/1/92 94/1/92
f 196/1/93 86/1/93 91/1/93
f 195/1/94 87/1/94 86/1/94
f 198/1/95 88/1/95 87/1/95
f 197/1/96 85/1/96 88/1/96
f 199/1/97 89/1/97 85/1/97
f 201/1/98 90/1/98 89/1/98
f 202/1/99 92/1/99 90/1/99
f 204/1/100 93/1/100 92/1/100
f 205/1/101 95/1/101 93/1/101
f 206/1/102 97/1/102 95/1/102
f 206/1/103 208/1/103 98/1/103
f 209/1/104 100/1/104 98/1/104
f 211/1/105 101/1/105 100/1/105
f 212/1/106 103/1/106 101/1/106
f 212/1/107 214/1/107 104/1/107
f 215/1/108 106/1/108 104/1/108
f 217/1/109 107/1/109 106/1/109
f 218/1/110 109/1/110 107/1/110
f 220/1/111 110/1/111 109/1/111
f 219/1/112 108/1/112 110/1/112
f 1/1/1 2/1/1 4/1/1
f 6/1/1 1/1/1 8/1/1
f 9/1/1 6/1/1 11/1/1
f 13/1/1 14/1/1 12/1/1
f 16/1/1 17/1/1 15/1/1
f 18/1/1 17/1/1 20/1/1
f 21/1/1 18/1/1 23/1/1
f 24/1/1 25/1/1 21/1/1
f 44/1/1 45/1/1 43/1/1
f 63/1/1 62/1/1 61/1/1
f 65/1/1 66/1/1 68/1/1
f 67/1/1 69/1/1 63/1/1
f 72/1/1 71/1/1 68/1/1
f 75/1/1 74/1/1 72/1/1
f 79/1/1 78/1/1 75/1/1
f 82/1/1 81/1/1 79/1/1
f 83/1/1 84/1/1 82/1/1
f 85/1/1 86/1/1 88/1/1
f 90/1/1 91/1/1 89/1/1
f 93/1/1 94/1/1 92/1/1
f 96/1/1 94/1/1 98/1/1
f 99/1/1 96/1/1 101/1/1
f 102/1/1 99/1/1 104/1/1
f 111/1/2 112/1/2 114/1/2
f 116/1/2 113/1/2 118/1/2
f 119/1/2 117/1/2 121/1/2
f 120/1/2 123/1/2 122/1/2
f 123/1/2 126/1/2 125/1/2
f 128/1/2 126/1/2 130/1/2
f 131/1/2 129/1/2 133/1/2
f 134/1/2 135/1/2 132/1/2
f 144/1/2 154/1/2 153/1/2
f 171/1/2 174/1/2 169/1/2
f 175/1/2 176/1/2 178/1/2
f 172/1/2 179/1/2 173/1/2
f 180/1/2 183/1/2 178/1/2
f 181/1/2 186/1/2 182/1/2
f 184/1/2 188/1/2 185/1/2
f 189/1/2 191/1/2 187/1/2
f 192/1/2 193/1/2 190/1/2
f 195/1/2 196/1/2 198/1/2
f 196/1/2 200/1/2 199/1/2
f 200/1/2 203/1/2 202/1/2
f 206/1/2 203/1/2 208/1/2
f 209/1/2 207/1/2 211/1/2
f 212/1/2 210/1/2 214/1/2
f 135/1/3 134/1/3 25/1/3
f 134/1/4 132/1/4 26/1/4
f 132/1/5 129/1/5 21/1/5
f 129/1/6 126/1/6 18/1/6
f 126/1/7 123/1/7 17/1/7
f 123/1/8 120/1/8 14/1/8
f 120/1/9 117/1/9 9/1/9
f 1/1/10 6/1/10 113/1/10
f 2/1/11 1/1/11 112/1/11
f 112/1/12 115/1/12 2/1/12
f 115/1/13 111/1/13 5/1/13
f 111/1/14 114/1/14 3/1/14
f 114/1/15 116/1/15 4/1/15
f 116/1/16 118/1/16 7/1/16
f 8/1/17 118/1/17 10/1/17
f 10/1/18 119/1/18 11/1/18
f 11/1/19 121/1/19 12/1/19
f 122/1/20 124/1/20 12/1/20
f 124/1/21 125/1/21 13/1/21
f 125/1/22 127/1/22 15/1/22
f 127/1/23 128/1/23 16/1/23
f 19/1/24 128/1/24 20/1/24
f 130/1/25 131/1/25 20/1/25
f 131/1/26 133/1/26 22/1/26
f 133/1/27 136/1/27 23/1/27
f 136/1/28 135/1/28 24/1/28
f 154/1/29 144/1/29 45/1/29
f 144/1/30 137/1/30 33/1/30
f 137/1/31 139/1/31 29/1/31
f 139/1/32 138/1/32 27/1/32
f 138/1/33 141/1/33 28/1/33
f 141/1/34 142/1/34 30/1/34
f 32/1/35 142/1/35 31/1/35
f 31/1/36 140/1/36 34/1/36
f 143/1/37 146/1/37 34/1/37
f 146/1/38 147/1/38 36/1/38
f 147/1/39 145/1/39 37/1/39
f 145/1/40 148/1/40 35/1/40
f 148/1/41 151/1/41 38/1/41
f 151/1/42 150/1/42 39/1/42
f 150/1/43 149/1/43 40/1/43
f 149/1/44 152/1/44 41/1/44
f 152/1/45 153/1/45 42/1/45
f 153/1/46 155/1/46 43/1/46
f 155/1/47 161/1/47 44/1/47
f 161/1/48 158/1/48 50/1/48
f 158/1/49 157/1/49 46/1/49
f 47/1/50 157/1/50 48/1/50
f 156/1/51 159/1/51 48/1/51
f 49/1/52 159/1/52 51/1/52
f 160/1/53 163/1/53 51/1/53
f 163/1/54 164/1/54 52/1/54
f 164/1/55 162/1/55 54/1/55
f 53/1/56 162/1/56 55/1/56
f 165/1/57 167/1/57 55/1/57
f 167/1/58 168/1/58 57/1/58
f 168/1/59 166/1/59 58/1/59
f 166/1/60 154/1/60 56/1/60
f 84/1/61 193/1/61 80/1/61
f 80/1/62 192/1/62 81/1/62
f 81/1/63 191/1/63 77/1/63
f 189/1/64 188/1/64 77/1/64
f 188/1/65 184/1/65 78/1/65
f 76/1/66 184/1/66 74/1/66
f 74/1/67 186/1/67 73/1/67
f 181/1/68 183/1/68 73/1/68
f 183/1/69 180/1/69 71/1/69
f 180/1/70 177/1/70 70/1/70
f 177/1/71 176/1/71 65/1/71
f 176/1/72 179/1/72 66/1/72
f 179/1/73 172/1/73 69/1/73
f 172/1/74 174/1/74 64/1/74
f 174/1/75 171/1/75 62/1/75
f 171/1/76 170/1/76 59/1/76
f 170/1/77 169/1/77 60/1/77
f 169/1/78 173/1/78 61/1/78
f 173/1/79 175/1/79 63/1/79
f 175/1/80 178/1/80 67/1/80
f 178/1/81 182/1/81 68/1/81
f 182/1/82 185/1/82 72/1/82
f 185/1/83 187/1/83 75/1/83
f 187/1/84 190/1/84 79/1/84
f 190/1/85 194/1/85 82/1/85
f 194/1/86 193/1/86 83/1/86
f 219/1/87 216/1/87 108/1/87
f 216/1/88 213/1/88 105/1/88
f 213/1/89 210/1/89 102/1/89
f 99/1/90 210/1/90 96/1/90
f 207/1/91 203/1/91 96/1/91
f 203/1/92 200/1/92 94/1/92
f 200/1/93 196/1/93 91/1/93
f 196/1/94 195/1/94 86/1/94
f 195/1/95 198/1/95 87/1/95
f 198/1/96 197/1/96 88/1/96
f 197/1/97 199/1/97 85/1/97
f 199/1/98 201/1/98 89/1/98
f 201/1/99 202/1/99 90/1/99
f 202/1/100 204/1/100 92/1/100
f 204/1/101 205/1/101 93/1/101
f 205/1/102 206/1/102 95/1/102
f 97/1/103 206/1/103 98/1/103
f 208/1/104 209/1/104 98/1/104
f 209/1/105 211/1/105 100/1/105
f 211/1/106 212/1/106 101/1/106
f 103/1/107 212/1/107 104/1/107
f 214/1/108 215/1/108 104/1/108
f 215/1/109 217/1/109 106/1/109
f 217/1/110 218/1/110 107/1/110
f 218/1/111 220/1/111 109/1/111
f 220/1/112 219/1/112 110/1/112
