# Blender v2.72 (sub 0) OBJ File: ''
# www.blender.org
o Mesh.001
v -7.263608 7.261493 0.478917
v -7.230367 6.522823 0.478917
v -4.058537 5.980356 0.478917
v -4.058537 8.522301 0.478917
v -7.130614 5.811766 0.478917
v -6.964378 5.128356 0.478917
v -6.731630 4.472579 0.478917
v -6.432400 3.844426 0.478917
v -6.066687 3.243920 0.478917
v -5.634462 2.671019 0.478917
v -5.135725 2.125779 0.478917
v -7.230367 7.997376 0.478917
v -5.135871 12.387182 0.478917
v -5.634550 11.841651 0.478917
v -6.066745 11.268925 0.478917
v -6.432458 10.669003 0.478917
v -6.731659 10.041887 0.478917
v -6.964407 9.387574 0.478917
v -7.130614 8.706082 0.478917
v 0.002103 14.514948 0.478917
v -0.736649 14.481678 0.478917
v -1.258704 11.322145 0.478917
v -1.447852 14.381954 0.478917
v -2.131452 14.215717 0.478917
v -2.787492 13.982999 0.478917
v -3.415940 13.683798 0.478917
v -4.016825 13.318085 0.478917
v -4.590136 12.885860 0.478917
v -1.258704 8.522301 0.478917
v 1.270966 11.322145 0.478917
v 5.137916 12.388263 0.478917
v 4.592677 12.886707 0.478917
v 4.019775 13.318669 0.478917
v 3.419270 13.684207 0.478917
v 2.791114 13.983262 0.478917
v 2.135323 14.215863 0.478917
v 1.451880 14.382011 0.478917
v 0.740823 14.481707 0.478917
v 7.263608 7.261493 0.478917
v 7.230367 7.997861 0.478917
v 4.058537 8.522301 0.478917
v 7.130731 8.706953 0.478917
v 6.964670 9.388733 0.478917
v 6.732156 10.043225 0.478917
v 6.433247 10.670435 0.478917
v 6.067884 11.270327 0.478917
v 5.636127 11.842936 0.478917
v 1.270966 8.497746 0.478917
v 5.136661 2.126977 0.478917
v 5.635134 2.672450 0.478917
v 4.058537 5.980356 0.478917
v 6.067184 3.245468 0.478917
v 6.432750 3.846003 0.478917
v 6.731864 4.474077 0.478917
v 6.964495 5.129644 0.478917
v 7.130672 5.812747 0.478917
v 7.230367 6.523355 0.478917
v 0.002103 0.000000 0.478917
v 0.740242 0.033241 0.478917
v 1.270966 3.192802 0.478917
v -1.258704 3.192802 0.478917
v 1.450864 0.132936 0.478917
v 2.133967 0.299113 0.478917
v 2.789537 0.531744 0.478917
v 3.417576 0.830858 0.478917
v 4.018140 1.196424 0.478917
v 4.591158 1.628474 0.478917
v 1.270966 5.980356 0.478917
v -4.589990 1.627539 0.478917
v -4.016679 1.195752 0.478917
v -3.415794 0.830390 0.478917
v -2.787346 0.531452 0.478917
v -2.131327 0.298938 0.478917
v -1.447738 0.132878 0.478917
v -0.736602 0.033241 0.478917
v -1.258704 5.980356 0.478917
v -4.058537 5.980356 -0.478917
v -7.230367 6.522823 -0.478917
v -7.263608 7.261493 -0.478917
v -4.058537 8.522301 -0.478917
v -7.130614 5.811766 -0.478917
v -6.964378 5.128356 -0.478917
v -6.731630 4.472579 -0.478917
v -6.432400 3.844426 -0.478917
v -6.066687 3.243920 -0.478917
v -5.634462 2.671019 -0.478917
v -5.135725 2.125779 -0.478917
v -7.230367 7.997376 -0.478917
v -5.634550 11.841651 -0.478917
v -5.135871 12.387182 -0.478917
v -6.066745 11.268925 -0.478917
v -6.432458 10.669003 -0.478917
v -6.731659 10.041887 -0.478917
v -6.964407 9.387574 -0.478917
v -7.130614 8.706082 -0.478917
v -1.258704 11.322145 -0.478917
v -0.736649 14.481678 -0.478917
v 0.002103 14.514948 -0.478917
v -1.447852 14.381954 -0.478917
v -2.131452 14.215717 -0.478917
v -2.787492 13.982999 -0.478917
v -3.415940 13.683798 -0.478917
v -4.016825 13.318085 -0.478917
v -4.590136 12.885860 -0.478917
v -1.258704 8.522301 -0.478917
v 4.592677 12.886707 -0.478917
v 5.137916 12.388263 -0.478917
v 1.270966 11.322145 -0.478917
v 4.019775 13.318669 -0.478917
v 3.419270 13.684207 -0.478917
v 2.791114 13.983262 -0.478917
v 2.135323 14.215863 -0.478917
v 1.451880 14.382011 -0.478917
v 0.740823 14.481707 -0.478917
v 4.058537 8.522301 -0.478917
v 7.230367 7.997861 -0.478917
v 7.263608 7.261493 -0.478917
v 7.130731 8.706953 -0.478917
v 6.964670 9.388733 -0.478917
v 6.732156 10.043225 -0.478917
v 6.433247 10.670435 -0.478917
v 6.067884 11.270327 -0.478917
v 5.636127 11.842936 -0.478917
v 1.270966 8.497746 -0.478917
v 4.058537 5.980356 -0.478917
v 5.635134 2.672450 -0.478917
v 5.136661 2.126977 -0.478917
v 6.067184 3.245468 -0.478917
v 6.432750 3.846003 -0.478917
v 6.731864 4.474077 -0.478917
v 6.964495 5.129644 -0.478917
v 7.130672 5.812747 -0.478917
v 7.230367 6.523355 -0.478917
v 1.270966 3.192802 -0.478917
v 0.740242 0.033241 -0.478917
v 0.002103 0.000000 -0.478917
v -1.258704 3.192802 -0.478917
v 1.450864 0.132936 -0.478917
v 2.133967 0.299113 -0.478917
v 2.789537 0.531744 -0.478917
v 3.417576 0.830858 -0.478917
v 4.018140 1.196424 -0.478917
v 4.591158 1.628474 -0.478917
v 1.270966 5.980356 -0.478917
v -4.589990 1.627539 -0.478917
v -4.016679 1.195752 -0.478917
v -3.415794 0.830390 -0.478917
v -2.787346 0.531452 -0.478917
v -2.131327 0.298938 -0.478917
v -1.447738 0.132878 -0.478917
v -0.736602 0.033241 -0.478917
v -1.258704 5.980356 -0.478917
vt 0.000000 0.000000
vn 0.000000 0.000000 1.000000
vn 0.000000 0.000000 -1.000000
vn -0.999000 -0.045000 0.000000
vn -0.990300 -0.138900 0.000000
vn -0.971700 -0.236400 0.000000
vn -0.942400 -0.334500 0.000000
vn -0.902800 -0.430100 0.000000
vn -0.854100 -0.520100 0.000000
vn -0.798300 -0.602300 0.000000
vn -0.737900 -0.674900 0.000000
vn -0.674200 -0.738500 0.000000
vn -0.601600 -0.798800 0.000000
vn -0.519500 -0.854400 0.000000
vn -0.429600 -0.903000 0.000000
vn -0.334100 -0.942500 0.000000
vn -0.236100 -0.971700 0.000000
vn -0.138800 -0.990300 0.000000
vn -0.045000 -0.999000 0.000000
vn 0.045000 -0.999000 0.000000
vn 0.138900 -0.990300 0.000000
vn 0.236400 -0.971700 0.000000
vn 0.334400 -0.942400 0.000000
vn 0.430000 -0.902800 0.000000
vn 0.520000 -0.854200 0.000000
vn 0.602000 -0.798500 0.000000
vn 0.674600 -0.738200 0.000000
vn 0.738200 -0.674600 0.000000
vn 0.798500 -0.602000 0.000000
vn 0.854200 -0.520000 0.000000
vn 0.902800 -0.430000 0.000000
vn 0.942400 -0.334400 0.000000
vn 0.971700 -0.236400 0.000000
vn 0.990300 -0.138900 0.000000
vn 0.999000 -0.045000 0.000000
vn 0.999000 0.045100 0.000000
vn 0.990300 0.139100 0.000000
vn 0.971600 0.236700 0.000000
vn 0.942300 0.334800 0.000000
vn 0.902700 0.430200 0.000000
vn 0.854100 0.520200 0.000000
vn 0.798500 0.602100 0.000000
vn 0.738300 0.674500 0.000000
vn 0.674700 0.738100 0.000000
vn 0.602000 0.798500 0.000000
vn 0.520000 0.854200 0.000000
vn 0.429900 0.902900 0.000000
vn 0.334300 0.942500 0.000000
vn 0.236200 0.971700 0.000000
vn 0.138800 0.990300 0.000000
vn 0.045000 0.999000 0.000000
vn -0.045000 0.999000 0.000000
vn -0.138900 0.990300 0.000000
vn -0.236300 0.971700 0.000000
vn -0.334300 0.942500 0.000000
vn -0.429900 0.902900 0.000000
vn -0.519900 0.854200 0.000000
vn -0.602000 0.798500 0.000000
vn -0.674600 0.738200 0.000000
vn -0.738100 0.674700 0.000000
vn -0.798200 0.602400 0.000000
vn -0.853900 0.520500 0.000000
vn -0.902500 0.430600 0.000000
vn -0.942200 0.335100 0.000000
vn -0.971500 0.236900 0.000000
vn -0.990200 0.139400 0.000000
vn -0.999000 0.045100 0.000000
vn 1.000000 0.000000 0.000000
vn 0.000000 -1.000000 0.000000
vn -1.000000 0.000000 0.000000
vn 0.008800 -1.000000 0.000000
vn 0.000000 1.000000 0.000000
s off
f 2/1/1 3/1/1 4/1/1
f 2/1/1 5/1/1 3/1/1
f 3/1/1 5/1/1 6/1/1
f 3/1/1 6/1/1 7/1/1
f 3/1/1 7/1/1 8/1/1
f 3/1/1 8/1/1 9/1/1
f 3/1/1 9/1/1 10/1/1
f 3/1/1 10/1/1 11/1/1
f 12/1/1 1/1/1 4/1/1
f 13/1/1 14/1/1 4/1/1
f 14/1/1 15/1/1 4/1/1
f 15/1/1 16/1/1 4/1/1
f 17/1/1 4/1/1 16/1/1
f 18/1/1 4/1/1 17/1/1
f 19/1/1 4/1/1 18/1/1
f 12/1/1 4/1/1 19/1/1
f 20/1/1 21/1/1 22/1/1
f 21/1/1 23/1/1 22/1/1
f 23/1/1 24/1/1 22/1/1
f 24/1/1 25/1/1 22/1/1
f 25/1/1 26/1/1 22/1/1
f 27/1/1 22/1/1 26/1/1
f 28/1/1 22/1/1 27/1/1
f 28/1/1 13/1/1 4/1/1
f 4/1/1 29/1/1 22/1/1
f 30/1/1 31/1/1 32/1/1
f 30/1/1 32/1/1 33/1/1
f 30/1/1 33/1/1 34/1/1
f 30/1/1 34/1/1 35/1/1
f 30/1/1 35/1/1 36/1/1
f 30/1/1 36/1/1 37/1/1
f 30/1/1 37/1/1 38/1/1
f 38/1/1 20/1/1 22/1/1
f 39/1/1 40/1/1 41/1/1
f 41/1/1 40/1/1 42/1/1
f 41/1/1 42/1/1 43/1/1
f 41/1/1 43/1/1 44/1/1
f 41/1/1 44/1/1 45/1/1
f 41/1/1 45/1/1 46/1/1
f 41/1/1 46/1/1 47/1/1
f 47/1/1 31/1/1 30/1/1
f 48/1/1 41/1/1 30/1/1
f 49/1/1 50/1/1 51/1/1
f 50/1/1 52/1/1 51/1/1
f 52/1/1 53/1/1 51/1/1
f 51/1/1 53/1/1 54/1/1
f 51/1/1 54/1/1 55/1/1
f 51/1/1 55/1/1 56/1/1
f 57/1/1 51/1/1 56/1/1
f 57/1/1 39/1/1 41/1/1
f 59/1/1 60/1/1 61/1/1
f 59/1/1 62/1/1 60/1/1
f 62/1/1 63/1/1 60/1/1
f 63/1/1 64/1/1 60/1/1
f 64/1/1 65/1/1 60/1/1
f 60/1/1 65/1/1 66/1/1
f 60/1/1 66/1/1 67/1/1
f 67/1/1 49/1/1 51/1/1
f 60/1/1 51/1/1 68/1/1
f 69/1/1 61/1/1 3/1/1
f 61/1/1 69/1/1 70/1/1
f 61/1/1 70/1/1 71/1/1
f 61/1/1 71/1/1 72/1/1
f 61/1/1 72/1/1 73/1/1
f 61/1/1 73/1/1 74/1/1
f 61/1/1 74/1/1 75/1/1
f 61/1/1 75/1/1 58/1/1
f 76/1/1 3/1/1 61/1/1
f 78/1/2 79/1/2 80/1/2
f 77/1/2 81/1/2 78/1/2
f 82/1/2 81/1/2 77/1/2
f 83/1/2 82/1/2 77/1/2
f 84/1/2 83/1/2 77/1/2
f 85/1/2 84/1/2 77/1/2
f 86/1/2 85/1/2 77/1/2
f 87/1/2 86/1/2 77/1/2
f 80/1/2 79/1/2 88/1/2
f 80/1/2 89/1/2 90/1/2
f 80/1/2 91/1/2 89/1/2
f 80/1/2 92/1/2 91/1/2
f 92/1/2 80/1/2 93/1/2
f 93/1/2 80/1/2 94/1/2
f 94/1/2 80/1/2 95/1/2
f 95/1/2 80/1/2 88/1/2
f 96/1/2 97/1/2 98/1/2
f 96/1/2 99/1/2 97/1/2
f 96/1/2 100/1/2 99/1/2
f 96/1/2 101/1/2 100/1/2
f 96/1/2 102/1/2 101/1/2
f 102/1/2 96/1/2 103/1/2
f 103/1/2 96/1/2 104/1/2
f 104/1/2 96/1/2 80/1/2
f 105/1/2 80/1/2 96/1/2
f 106/1/2 107/1/2 108/1/2
f 109/1/2 106/1/2 108/1/2
f 110/1/2 109/1/2 108/1/2
f 111/1/2 110/1/2 108/1/2
f 112/1/2 111/1/2 108/1/2
f 113/1/2 112/1/2 108/1/2
f 114/1/2 113/1/2 108/1/2
f 114/1/2 108/1/2 96/1/2
f 115/1/2 116/1/2 117/1/2
f 118/1/2 116/1/2 115/1/2
f 119/1/2 118/1/2 115/1/2
f 120/1/2 119/1/2 115/1/2
f 121/1/2 120/1/2 115/1/2
f 122/1/2 121/1/2 115/1/2
f 123/1/2 122/1/2 115/1/2
f 123/1/2 115/1/2 108/1/2
f 108/1/2 115/1/2 124/1/2
f 125/1/2 126/1/2 127/1/2
f 125/1/2 128/1/2 126/1/2
f 125/1/2 129/1/2 128/1/2
f 130/1/2 129/1/2 125/1/2
f 131/1/2 130/1/2 125/1/2
f 132/1/2 131/1/2 125/1/2
f 132/1/2 125/1/2 133/1/2
f 133/1/2 125/1/2 115/1/2
f 135/1/2 136/1/2 137/1/2
f 134/1/2 138/1/2 135/1/2
f 134/1/2 139/1/2 138/1/2
f 134/1/2 140/1/2 139/1/2
f 134/1/2 141/1/2 140/1/2
f 142/1/2 141/1/2 134/1/2
f 143/1/2 142/1/2 134/1/2
f 143/1/2 134/1/2 125/1/2
f 144/1/2 125/1/2 134/1/2
f 145/1/2 87/1/2 77/1/2
f 146/1/2 145/1/2 137/1/2
f 147/1/2 146/1/2 137/1/2
f 148/1/2 147/1/2 137/1/2
f 149/1/2 148/1/2 137/1/2
f 150/1/2 149/1/2 137/1/2
f 151/1/2 150/1/2 137/1/2
f 136/1/2 151/1/2 137/1/2
f 137/1/2 77/1/2 152/1/2
f 1/1/3 79/1/3 78/1/3
f 81/1/4 5/1/4 2/1/4
f 82/1/5 6/1/5 5/1/5
f 83/1/6 7/1/6 6/1/6
f 84/1/7 8/1/7 7/1/7
f 85/1/8 9/1/8 8/1/8
f 86/1/9 10/1/9 9/1/9
f 87/1/10 11/1/10 10/1/10
f 145/1/11 69/1/11 11/1/11
f 146/1/12 70/1/12 69/1/12
f 147/1/13 71/1/13 70/1/13
f 148/1/14 72/1/14 71/1/14
f 149/1/15 73/1/15 72/1/15
f 150/1/16 74/1/16 73/1/16
f 151/1/17 75/1/17 74/1/17
f 136/1/18 58/1/18 75/1/18
f 135/1/19 59/1/19 58/1/19
f 138/1/20 62/1/20 59/1/20
f 139/1/21 63/1/21 62/1/21
f 140/1/22 64/1/22 63/1/22
f 141/1/23 65/1/23 64/1/23
f 142/1/24 66/1/24 65/1/24
f 143/1/25 67/1/25 66/1/25
f 127/1/26 49/1/26 67/1/26
f 126/1/27 50/1/27 49/1/27
f 128/1/28 52/1/28 50/1/28
f 129/1/29 53/1/29 52/1/29
f 130/1/30 54/1/30 53/1/30
f 131/1/31 55/1/31 54/1/31
f 132/1/32 56/1/32 55/1/32
f 133/1/33 57/1/33 56/1/33
f 117/1/34 39/1/34 57/1/34
f 116/1/35 40/1/35 39/1/35
f 118/1/36 42/1/36 40/1/36
f 119/1/37 43/1/37 42/1/37
f 120/1/38 44/1/38 43/1/38
f 121/1/39 45/1/39 44/1/39
f 122/1/40 46/1/40 45/1/40
f 123/1/41 47/1/41 46/1/41
f 107/1/42 31/1/42 47/1/42
f 106/1/43 32/1/43 31/1/43
f 109/1/44 33/1/44 32/1/44
f 110/1/45 34/1/45 33/1/45
f 111/1/46 35/1/46 34/1/46
f 112/1/47 36/1/47 35/1/47
f 113/1/48 37/1/48 36/1/48
f 114/1/49 38/1/49 37/1/49
f 98/1/50 20/1/50 38/1/50
f 97/1/51 21/1/51 20/1/51
f 99/1/52 23/1/52 21/1/52
f 100/1/53 24/1/53 23/1/53
f 101/1/54 25/1/54 24/1/54
f 102/1/55 26/1/55 25/1/55
f 103/1/56 27/1/56 26/1/56
f 104/1/57 28/1/57 27/1/57
f 90/1/58 13/1/58 28/1/58
f 89/1/59 14/1/59 13/1/59
f 91/1/60 15/1/60 14/1/60
f 92/1/61 16/1/61 15/1/61
f 93/1/62 17/1/62 16/1/62
f 94/1/63 18/1/63 17/1/63
f 95/1/64 19/1/64 18/1/64
f 88/1/65 12/1/65 19/1/65
f 12/1/66 88/1/66 79/1/66
f 80/1/67 4/1/67 3/1/67
f 105/1/68 29/1/68 4/1/68
f 96/1/67 22/1/67 29/1/67
f 108/1/68 30/1/68 22/1/68
f 124/1/69 48/1/69 30/1/69
f 115/1/70 41/1/70 48/1/70
f 125/1/69 51/1/69 41/1/69
f 125/1/71 144/1/71 68/1/71
f 134/1/69 60/1/69 68/1/69
f 137/1/71 61/1/71 60/1/71
f 152/1/67 76/1/67 61/1/67
f 77/1/71 3/1/71 76/1/71
f 1/1/1 2/1/1 4/1/1
f 22/1/1 28/1/1 4/1/1
f 30/1/1 38/1/1 22/1/1
f 41/1/1 47/1/1 30/1/1
f 51/1/1 57/1/1 41/1/1
f 58/1/1 59/1/1 61/1/1
f 60/1/1 67/1/1 51/1/1
f 11/1/1 69/1/1 3/1/1
f 77/1/2 78/1/2 80/1/2
f 90/1/2 104/1/2 80/1/2
f 98/1/2 114/1/2 96/1/2
f 107/1/2 123/1/2 108/1/2
f 117/1/2 133/1/2 115/1/2
f 134/1/2 135/1/2 137/1/2
f 127/1/2 143/1/2 125/1/2
f 137/1/2 145/1/2 77/1/2
f 2/1/3 1/1/3 78/1/3
f 78/1/4 81/1/4 2/1/4
f 81/1/5 82/1/5 5/1/5
f 82/1/6 83/1/6 6/1/6
f 83/1/7 84/1/7 7/1/7
f 84/1/8 85/1/8 8/1/8
f 85/1/9 86/1/9 9/1/9
f 86/1/10 87/1/10 10/1/10
f 87/1/11 145/1/11 11/1/11
f 145/1/12 146/1/12 69/1/12
f 146/1/13 147/1/13 70/1/13
f 147/1/14 148/1/14 71/1/14
f 148/1/15 149/1/15 72/1/15
f 149/1/16 150/1/16 73/1/16
f 150/1/17 151/1/17 74/1/17
f 151/1/18 136/1/18 75/1/18
f 136/1/19 135/1/19 58/1/19
f 135/1/20 138/1/20 59/1/20
f 138/1/21 139/1/21 62/1/21
f 139/1/22 140/1/22 63/1/22
f 140/1/23 141/1/23 64/1/23
f 141/1/24 142/1/24 65/1/24
f 142/1/25 143/1/25 66/1/25
f 143/1/26 127/1/26 67/1/26
f 127/1/27 126/1/27 49/1/27
f 126/1/28 128/1/28 50/1/28
f 128/1/29 129/1/29 52/1/29
f 129/1/30 130/1/30 53/1/30
f 130/1/31 131/1/31 54/1/31
f 131/1/32 132/1/32 55/1/32
f 132/1/33 133/1/33 56/1/33
f 133/1/34 117/1/34 57/1/34
f 117/1/35 116/1/35 39/1/35
f 116/1/36 118/1/36 40/1/36
f 118/1/37 119/1/37 42/1/37
f 119/1/38 120/1/38 43/1/38
f 120/1/39 121/1/39 44/1/39
f 121/1/40 122/1/40 45/1/40
f 122/1/41 123/1/41 46/1/41
f 123/1/42 107/1/42 47/1/42
f 107/1/43 106/1/43 31/1/43
f 106/1/44 109/1/44 32/1/44
f 109/1/45 110/1/45 33/1/45
f 110/1/46 111/1/46 34/1/46
f 111/1/47 112/1/47 35/1/47
f 112/1/48 113/1/48 36/1/48
f 113/1/49 114/1/49 37/1/49
f 114/1/50 98/1/50 38/1/50
f 98/1/51 97/1/51 20/1/51
f 97/1/52 99/1/52 21/1/52
f 99/1/53 100/1/53 23/1/53
f 100/1/54 101/1/54 24/1/54
f 101/1/55 102/1/55 25/1/55
f 102/1/56 103/1/56 26/1/56
f 103/1/57 104/1/57 27/1/57
f 104/1/58 90/1/58 28/1/58
f 90/1/59 89/1/59 13/1/59
f 89/1/60 91/1/60 14/1/60
f 91/1/61 92/1/61 15/1/61
f 92/1/62 93/1/62 16/1/62
f 93/1/63 94/1/63 17/1/63
f 94/1/64 95/1/64 18/1/64
f 95/1/65 88/1/65 19/1/65
f 1/1/66 12/1/66 79/1/66
f 77/1/67 80/1/67 3/1/67
f 80/1/68 105/1/68 4/1/68
f 105/1/67 96/1/67 29/1/67
f 96/1/68 108/1/68 22/1/68
f 108/1/69 124/1/69 30/1/69
f 124/1/70 115/1/70 48/1/70
f 115/1/69 125/1/69 41/1/69
f 51/1/71 125/1/71 68/1/71
f 144/1/69 134/1/69 68/1/69
f 134/1/71 137/1/71 60/1/71
f 137/1/67 152/1/67 61/1/67
f 152/1/71 77/1/71 76/1/71
