# Blender v2.72 (sub 0) OBJ File: ''
# www.blender.org
o Mesh_
v 4.487411 9.966590 -0.510352
v 1.460431 6.100240 -0.510352
v 0.101303 6.372760 -0.510352
v 3.089051 5.773670 -0.510352
v 4.383670 5.514080 -0.510352
v -3.800230 -1.988110 -0.510352
v -0.533743 -0.153543 -0.510352
v 0.835850 -1.664900 -0.510352
v 4.448450 0.014740 -0.510352
v 0.490486 -9.966590 -0.510352
v -4.487411 -8.968440 -0.510352
v 1.460431 6.100240 0.510352
v 4.487411 9.966590 0.510352
v 0.101303 6.372760 0.510352
v 3.089051 5.773670 0.510352
v 4.383670 5.514080 0.510352
v 0.835850 -1.664900 0.510352
v -0.533743 -0.153543 0.510352
v -3.800230 -1.988110 0.510352
v 4.448450 0.014740 0.510352
v 0.490486 -9.966590 0.510352
v -4.487411 -8.968440 0.510352
vt 0.000000 0.000000
vn -0.000000 -0.000000 -1.000000
vn 0.000000 0.000000 1.000000
vn -0.808100 0.589000 0.000000
vn 0.069500 -0.997600 0.000000
vn -0.838300 0.545200 0.000000
vn -0.196600 -0.980500 0.000000
vn -0.633800 0.773500 0.000000
vn 0.999700 -0.023300 0.000000
vn 0.853200 -0.521500 0.000000
vn -0.033800 0.999400 -0.000000
vn 0.929600 -0.368600 0.000000
s off
f 1/1/1 2/1/1 3/1/1
f 1/1/1 4/1/1 2/1/1
f 4/1/1 1/1/1 5/1/1
f 6/1/1 7/1/1 8/1/1
f 7/1/1 2/1/1 4/1/1
f 9/1/1 8/1/1 7/1/1
f 9/1/1 10/1/1 8/1/1
f 11/1/1 8/1/1 10/1/1
f 6/1/1 2/1/1 7/1/1
f 12/1/2 13/1/2 14/1/2
f 12/1/2 15/1/2 13/1/2
f 16/1/2 13/1/2 15/1/2
f 17/1/2 18/1/2 19/1/2
f 18/1/2 15/1/2 12/1/2
f 18/1/2 17/1/2 20/1/2
f 17/1/2 21/1/2 20/1/2
f 21/1/2 17/1/2 22/1/2
f 18/1/2 12/1/2 19/1/2
f 17/1/3 8/1/3 11/1/3
f 19/1/4 6/1/4 8/1/4
f 12/1/5 2/1/5 6/1/5
f 12/1/6 14/1/6 3/1/6
f 3/1/7 14/1/7 13/1/7
f 1/1/8 13/1/8 16/1/8
f 15/1/6 4/1/6 5/1/6
f 18/1/9 7/1/9 4/1/9
f 20/1/10 9/1/10 7/1/10
f 20/1/11 21/1/11 10/1/11
f 22/1/6 11/1/6 10/1/6
f 22/1/3 17/1/3 11/1/3
f 17/1/4 19/1/4 8/1/4
f 19/1/5 12/1/5 6/1/5
f 2/1/6 12/1/6 3/1/6
f 1/1/7 3/1/7 13/1/7
f 5/1/8 1/1/8 16/1/8
f 16/1/6 15/1/6 5/1/6
f 15/1/9 18/1/9 4/1/9
f 18/1/10 20/1/10 7/1/10
f 9/1/11 20/1/11 10/1/11
f 21/1/6 22/1/6 10/1/6
